PathFileType	4	(X/Y/Z)	 s07c0301.trc
DataRate	CameraRate	NumFrames	NumMarkers	Units	OrigDataRate	OrigDataStartFrame	OrigNumFrames
200	200	6	48	mm	200	1751	2000
Frame#	Time	racr			lacr			c7			jug			rlel			rdr			llel			ldr			s2			lic			ric			lasi			rasi			rpsi			lpsi			rgt			lgt			rth1			rth2			rth3			rth4			rlfc			rmfc			rsh1			rsh2			rsh3			rsh4			rlmal			rcal			rtoe			rmt5			lth1			lth2			lth4			lth3			llfc			lmfc			lsh1			lsh2			lsh3			lsh4			llmal			lcal			ltoe			lmt5			SBIKE			LBIKE			RBIKE			
		X1	Y1	Z1	X2	Y2	Z2	X3	Y3	Z3	X4	Y4	Z4	X5	Y5	Z5	X6	Y6	Z6	X7	Y7	Z7	X8	Y8	Z8	X9	Y9	Z9	X10	Y10	Z10	X11	Y11	Z11	X12	Y12	Z12	X13	Y13	Z13	X14	Y14	Z14	X15	Y15	Z15	X16	Y16	Z16	X17	Y17	Z17	X18	Y18	Z18	X19	Y19	Z19	X20	Y20	Z20	X21	Y21	Z21	X22	Y22	Z22	X23	Y23	Z23	X24	Y24	Z24	X25	Y25	Z25	X26	Y26	Z26	X27	Y27	Z27	X28	Y28	Z28	X29	Y29	Z29	X30	Y30	Z30	X31	Y31	Z31	X32	Y32	Z32	X33	Y33	Z33	X34	Y34	Z34	X35	Y35	Z35	X36	Y36	Z36	X37	Y37	Z37	X38	Y38	Z38	X39	Y39	Z39	X40	Y40	Z40	X41	Y41	Z41	X42	Y42	Z42	X43	Y43	Z43	X44	Y44	Z44	X45	Y45	Z45	X46	Y46	Z46	X47	Y47	Z47	X48	Y48	Z48	
1751	8.7550	597.447244	1511.831520	-112.220617	629.480103	1482.145108	-431.335289	604.285597	1559.951864	-281.814058	568.659386	1414.404696	-270.221008	609.348063	1171.508095	-19.741615	731.760898	898.591258	-62.167729	551.414319	1140.704530	-495.075624	731.269362	921.830451	-400.817019	52.054988	1266.477757	-273.887527	217.917686	1281.891874	-423.183426	221.316892	1324.332824	-130.419693	242.803012	1205.582746	-387.724065	239.359765	1267.910695	-134.289120	79.154195	1311.027319	-231.795867	93.737431	1301.488839	-338.052021	157.731729	1217.863423	-70.344986	131.397957	1134.290610	-420.815053	264.589107	1133.752792	-30.620284	339.972987	1092.071410	-13.814319	384.160707	1023.921474	15.344189	365.460898	1111.595224	-32.423429	458.587512	904.082127	25.138673	473.889187	879.520148	-78.557073	333.174481	835.601962	19.802915	271.257223	780.052402	-12.407137	187.687816	761.924247	-27.863570	290.205337	764.397454	-45.282224	66.425251	695.932581	-59.253220	-2.195712	710.320111	-106.593870	207.444520	511.092661	-74.349454	108.226797	529.220958	-30.879680	145.692464	1020.054178	-435.470921	180.991365	938.937943	-439.280299	217.057434	944.549156	-432.753780	171.497758	850.930162	-429.963012	193.094455	686.514398	-402.261851	190.727694	669.887557	-313.666655	142.105102	548.262202	-421.727109	143.909013	464.312916	-402.747117	100.170641	384.792969	-404.423892	150.062180	467.214992	-360.560062	58.256359	257.743824	-393.462105	-12.576320	230.056504	-361.552644	270.106164	161.173925	-358.105980	189.465710	149.024411	-424.119992	-259.714626	975.573235	-233.907044	-75.740994	83.394860	-438.484154	-82.641622	79.568745	-40.899799	
1752	8.7600	596.936706	1511.620432	-112.528439	628.733989	1481.750065	-431.825677	603.820165	1559.648107	-282.147916	567.894002	1414.201096	-270.662452	609.048982	1171.430878	-19.886509	731.743989	898.610811	-62.143251	550.951543	1140.306598	-495.162224	731.244260	921.735757	-400.806465	51.407283	1266.373717	-274.062958	217.268041	1281.974608	-423.386546	220.690168	1324.281669	-130.675678	242.210516	1205.641400	-387.762248	238.579915	1267.920259	-134.383251	78.408795	1310.982837	-231.957170	93.014050	1301.446633	-338.214852	157.048239	1217.972093	-70.462694	130.832489	1134.300635	-420.912571	264.105309	1134.175234	-30.809025	339.666204	1092.834813	-14.041152	384.142139	1024.923400	15.101154	365.093509	1112.579385	-32.549321	459.191563	905.343890	24.715571	474.587050	880.906217	-78.900578	334.164013	836.307406	19.420599	272.419907	780.472012	-12.905679	188.855294	762.217952	-28.333409	291.257344	764.999994	-45.964834	67.721268	695.669530	-59.971686	-1.080019	709.618734	-107.035919	210.364950	512.127217	-75.572540	111.120480	529.303180	-31.839550	145.161541	1020.079763	-435.658479	180.545702	938.946446	-439.553518	216.608183	944.587502	-433.217818	171.013478	850.988760	-430.227353	192.922265	686.551202	-402.484213	190.680948	669.913625	-313.889588	141.832597	548.326215	-421.884402	143.575647	464.364350	-402.851769	99.745981	384.897653	-404.526498	149.723646	467.234710	-360.663960	57.690285	257.876845	-393.459333	-13.148508	230.343386	-361.488873	269.430092	161.186744	-358.166487	189.049597	149.040042	-424.133839	-259.703794	975.573280	-233.915753	-75.762796	83.433966	-438.462025	-82.579338	79.414108	-40.958693	
1753	8.7650	596.394686	1511.430847	-112.850696	627.921541	1481.390296	-432.161165	603.324264	1559.322136	-282.553174	567.198037	1414.007899	-270.910836	608.756687	1171.363482	-20.040698	731.680805	898.635499	-62.188000	550.402787	1139.848515	-495.236863	731.186716	921.626190	-400.786302	50.716860	1266.352975	-274.172622	216.594858	1282.062127	-423.434611	219.819563	1324.588603	-130.749948	241.582959	1205.718017	-387.835076	237.805942	1268.004708	-134.521742	77.692094	1310.953361	-232.119047	92.385236	1301.474528	-338.322638	156.339270	1218.138469	-70.566683	130.305326	1134.415208	-421.057275	263.595551	1134.658347	-31.002920	339.343074	1093.637407	-14.219702	384.127929	1025.868694	14.876438	364.692784	1113.494394	-32.732809	459.803191	906.419997	24.348051	475.317967	882.448140	-79.461258	335.137382	836.866813	19.015113	273.631273	780.881268	-13.427137	190.116025	762.331181	-28.708479	292.493927	765.611543	-46.622601	69.179259	695.322166	-60.560296	-0.073255	708.756850	-107.682179	213.435236	513.123776	-77.014221	114.120451	529.332607	-32.982690	144.605113	1020.179863	-435.844280	179.905220	939.027307	-439.933244	216.036683	944.680019	-433.758880	170.523473	851.051039	-430.457605	192.716801	686.616862	-402.703816	190.595213	669.976555	-314.116877	141.535229	548.386669	-422.027022	143.278569	464.418726	-402.948088	99.407624	385.039010	-404.622121	149.464425	467.268726	-360.851141	57.286237	258.023726	-393.484955	-13.527896	230.505825	-361.460249	269.010975	161.231357	-358.231892	188.756541	149.053707	-424.146360	-259.696737	975.574704	-233.916064	-75.746246	83.409155	-438.469559	-82.577662	79.422838	-40.967495	
1754	8.7700	595.882369	1511.200049	-113.192340	627.235549	1481.049421	-432.570669	602.860478	1559.018026	-282.882447	566.412193	1413.805978	-271.327755	608.480982	1171.297402	-20.207101	731.734275	898.633744	-62.155969	549.914824	1139.413525	-495.275268	731.110931	921.521382	-400.754999	50.072923	1266.375785	-274.318069	215.899825	1282.172851	-423.581002	219.142211	1324.757763	-130.885975	240.948220	1205.880254	-388.013713	232.213058	1266.953762	-141.670121	77.026526	1311.014070	-232.271199	91.654895	1301.548290	-338.438393	155.678867	1218.326704	-70.697221	129.664402	1134.489813	-421.188943	263.193936	1135.190565	-31.236093	339.203059	1094.437422	-14.034525	384.114048	1026.818002	14.600406	364.321922	1114.425224	-32.879644	460.303021	907.607256	24.010242	475.955106	883.980341	-79.919763	336.106664	837.363708	18.550878	274.801202	781.253667	-13.937594	191.321985	762.368526	-29.156254	293.587141	766.181687	-47.334104	70.636102	694.785010	-61.222133	0.973630	707.723285	-108.212888	216.522889	514.035216	-78.550879	117.172072	529.145655	-34.261629	143.954804	1020.293433	-436.025504	179.293021	939.130488	-440.244508	215.418474	944.786224	-434.277231	169.942341	851.194720	-430.684864	192.434724	686.735796	-402.896220	190.474309	670.113313	-314.346450	141.282226	548.481119	-422.174264	143.040123	464.494317	-403.074859	99.195299	385.131815	-404.703050	149.256583	467.390725	-360.963681	57.126984	258.119669	-393.534051	-13.664454	230.623618	-361.439620	268.839300	161.192558	-358.212397	188.593785	149.065071	-424.157247	-259.701986	975.572976	-233.907530	-75.746472	83.395985	-438.484149	-82.574363	79.415408	-40.952334	
1755	8.7750	595.438162	1510.994315	-113.503412	626.480901	1480.550727	-432.853247	602.415453	1558.738187	-283.231180	565.714365	1413.648547	-271.576281	608.199036	1171.195650	-20.368532	731.691471	898.616805	-62.200050	549.402857	1139.044129	-495.267345	731.022938	921.464615	-400.733180	49.392280	1266.474488	-274.347786	215.166282	1282.377528	-423.760954	218.464615	1324.954427	-131.052481	240.283398	1206.072979	-388.236069	231.514175	1267.123564	-141.906941	76.347465	1311.086201	-232.414844	91.004000	1301.690415	-338.566420	155.096496	1218.528599	-70.837051	129.040203	1134.667990	-421.279956	262.796686	1135.727300	-31.469755	338.909648	1095.289113	-14.252184	384.082754	1027.808849	14.379888	364.015925	1115.348889	-33.074769	460.854012	908.749332	23.604374	476.582064	885.344103	-80.294897	337.124809	837.809388	18.251133	275.958042	781.616686	-14.496824	192.570853	762.315598	-29.619574	294.727378	766.757011	-48.063044	72.081470	694.133653	-61.940243	2.135129	706.587341	-108.912215	219.715888	514.940817	-80.248358	120.271856	528.807528	-35.673880	143.259525	1020.454652	-436.188092	178.519702	939.275072	-440.684476	214.730188	944.953693	-434.837090	169.226669	851.354575	-430.947237	192.068707	686.880864	-403.076274	190.334185	670.239578	-314.554719	141.062719	548.623859	-422.300981	142.869782	464.581617	-403.200142	99.113543	385.210796	-404.771745	149.160374	467.486414	-361.078918	57.166763	258.148451	-393.570636	-13.615667	230.680823	-361.443403	268.869143	161.162635	-358.197883	188.564978	149.073963	-424.166245	-259.697804	975.571883	-233.894369	-75.724648	83.380622	-438.483724	-82.555130	79.429273	-40.948163	
1756	8.7800	594.951904	1510.785617	-113.797089	625.834107	1480.223122	-433.226628	601.961977	1558.459593	-283.631445	564.941651	1413.451329	-271.933299	607.941350	1171.103276	-20.528544	731.704756	898.629679	-62.209806	548.920788	1138.623493	-495.283883	730.951075	921.413265	-400.724752	48.764748	1266.607490	-274.498284	214.386065	1282.670207	-423.944111	217.829846	1325.137469	-131.219089	239.627358	1206.256224	-388.415888	230.894039	1267.412539	-142.120928	75.722571	1311.213455	-232.531847	90.319480	1301.858523	-338.659370	154.523144	1218.780068	-70.979267	128.335106	1134.898718	-421.391241	262.354094	1136.350183	-31.665908	338.657756	1096.148330	-14.443133	384.045660	1028.770327	14.104345	363.677558	1116.268337	-33.253699	461.429474	909.864201	23.213492	477.149375	886.763836	-80.723424	338.062030	838.185417	17.847633	277.093775	781.958239	-15.024592	193.835787	762.175679	-30.058287	295.835498	767.248613	-48.757559	73.687585	693.415134	-62.569729	3.277007	705.398761	-109.492206	222.862131	515.727324	-82.012489	123.394973	528.437329	-37.245131	142.552821	1020.622486	-436.372485	177.829798	939.456446	-440.997938	214.011270	945.118580	-435.361342	168.534207	851.540841	-431.202607	191.640077	687.075622	-403.268283	190.135857	670.434952	-314.726765	140.787597	548.746638	-422.445921	142.757268	464.678894	-403.316408	99.133696	385.264976	-404.855323	149.110516	467.611602	-361.209313	57.420190	258.112089	-393.556594	-13.361913	230.685783	-361.446665	269.107381	161.189141	-358.247069	188.670187	149.080393	-424.173151	-259.708432	975.575670	-233.903343	-75.739833	83.389329	-438.479869	-82.550656	79.420670	-40.955647	
